<svg id="Layer_1" data-name="Layer 1" xmlns="http://www.w3.org/2000/svg" viewBox="0 0 487.88 119.08"><defs><style>.cls-1{fill:#252422;}</style></defs><title>logo</title><path class="cls-1" d="M108.54,363A59.87,59.87,0,0,1,85,358.15l-2.41-1L146.82,311a4.13,4.13,0,0,1,3.59-.62,4.07,4.07,0,0,1,2.66,2.39,34.4,34.4,0,0,1,2.32,13C155.39,349.09,137.88,363,108.54,363Zm-19.89-6.61A57.4,57.4,0,0,0,108.54,360c27.87,0,43.85-12.5,43.85-34.29a31.5,31.5,0,0,0-2.1-11.87,1.1,1.1,0,0,0-.72-.64,1.15,1.15,0,0,0-1,.18Z" transform="translate(-53.69 -251.44)"/><path class="cls-1" d="M108.54,364a61,61,0,0,1-24-5l-4-1.76,65.68-47.15a5.15,5.15,0,0,1,4.45-.77,5.08,5.08,0,0,1,3.32,3,35.62,35.62,0,0,1,2.39,13.38C156.39,349.72,138.5,364,108.54,364Zm-24-7.14.8.35A59,59,0,0,0,108.54,362c28.71,0,45.85-13.57,45.85-36.29a33.42,33.42,0,0,0-2.25-12.62,3.08,3.08,0,0,0-2-1.81,3.16,3.16,0,0,0-2.73.47Zm24,4.14a58,58,0,0,1-20.24-3.68l-1.75-.66L148,312.59a2.18,2.18,0,0,1,1.87-.32,2.11,2.11,0,0,1,1.37,1.22,32.53,32.53,0,0,1,2.17,12.25C153.39,348.17,137,361,108.54,361Zm-17.76-4.92A55.93,55.93,0,0,0,108.54,359c27.23,0,42.85-12.13,42.85-33.29a30.33,30.33,0,0,0-2-11.49c-.12-.07-.17-.06-.21,0Z" transform="translate(-53.69 -251.44)"/><path class="cls-1" d="M103.74,345,79.33,362.51a3.73,3.73,0,0,1-3.82.32c-11.83-5.8-20.82-16-20.82-30.43,0-3.92,1-4.78,5-4.78H76.17c3.92,0,5.8.51,6.14,4.78a11.72,11.72,0,0,0,3.23,7c3.41,4.1,10.4,5.63,16.71,5.63C102.75,345,103.25,345,103.74,345Z" transform="translate(-53.69 -251.44)"/><path class="cls-1" d="M77.16,364.21a4.68,4.68,0,0,1-2.09-.49C61.28,357,53.69,345.85,53.69,332.4c0-4.43,1.39-5.78,6-5.78H76.17c3.79,0,6.72.42,7.14,5.7a10.69,10.69,0,0,0,3,6.4C89.05,342,95,344,102.25,344c.49,0,1,0,1.45,0l3.33-.13L79.92,363.33A4.77,4.77,0,0,1,77.16,364.21ZM59.64,328.62c-3.43,0-4,.49-4,3.78,0,17.06,12.69,25.82,20.26,29.53a2.74,2.74,0,0,0,2.8-.23L100.64,346c-4.34-.19-11.92-1.22-15.87-6a12.78,12.78,0,0,1-3.46-7.54c-.27-3.41-1.28-3.86-5.14-3.86Z" transform="translate(-53.69 -251.44)"/><path class="cls-1" d="M141.29,318.43l-22.25,16c0-.21,0-.42,0-.63,0-9.11-14.47-9.27-28.3-13.66-16.42-5.2-31.54-11.71-31.54-32.37,0-21.14,19.19-31.55,39.52-32.36,20.65,0,43.26,9.44,43.26,30.9,0,3.91-1,4.56-4.72,4.56H121.34c-3.09,0-3.57-2.29-4.39-4.39a13.37,13.37,0,0,0-3.41-4.89c-3.09-2.93-9-4.39-13.83-4.39-5.37,0-14.31,2.12-14.31,9.44,0,9.92,23.91,13.5,30.41,16.09C124.29,305.28,135.66,308.48,141.29,318.43Z" transform="translate(-53.69 -251.44)"/><path class="cls-1" d="M117.85,336.48l.2-2.18c0-.18,0-.36,0-.54,0-5.93-7.41-7.67-16.8-9.87-3.51-.83-7.14-1.68-10.8-2.84-16.31-5.17-32.24-12-32.24-33.32,0-23.43,21.81-32.61,40.48-33.36,21.36,0,44.3,10,44.3,31.9,0,4.75-1.77,5.56-5.72,5.56H121.34c-3.47,0-4.37-2.45-5.09-4.41-.07-.21-.15-.42-.23-.63a12.45,12.45,0,0,0-3.19-4.53c-3-2.83-8.74-4.1-13.12-4.1-4.6,0-13.31,1.77-13.31,8.44,0,6.92,14.46,10.83,23.1,13.17a68.09,68.09,0,0,1,6.68,2l.71.21c8.28,2.51,19.62,6,25.27,16l.45.78ZM98.74,256.37c-17.75.71-38.52,9.35-38.52,31.36,0,20,14.59,26.27,30.84,31.41,3.59,1.14,7.18,2,10.66,2.8C111,324.11,119.06,326,120,332.49l20-14.34c-5.39-8.71-15.5-11.78-23.67-14.26l-.78-.24c-1.49-.59-3.83-1.22-6.54-1.95-9.79-2.65-24.58-6.65-24.58-15.1,0-8.26,10-10.44,15.31-10.44,4.43,0,10.88,1.22,14.52,4.67a14.46,14.46,0,0,1,3.65,5.24l.25.66c.75,2,1.23,3.1,3.21,3.1h15.94c3.2,0,3.72-.25,3.72-3.56C141,265.73,119.09,256.37,98.74,256.37Z" transform="translate(-53.69 -251.44)"/><path class="cls-1" d="M196.41,363.48H179.54c-4.34,0-6.45-2.11-6.45-6.45V298l25.58-18.36a2.64,2.64,0,0,1,4.18,2.14v22.48h14.87c11,0,17.59-5.37,17.59-14.36,0-9.23-6.41-14.52-17.59-14.52H204.6L234.39,254a8.1,8.1,0,0,1,8.15-.76c13.87,6.52,21.51,19.36,21.51,36.16,0,25.6-17.32,40.88-46.33,40.88H202.85V357C202.85,361.37,200.74,363.48,196.41,363.48Zm-20.32-64V357c0,3,1.06,3.45,3.45,3.45h16.87c2.38,0,3.44-.5,3.44-3.45V327.24h17.87c27.13,0,43.33-14.16,43.33-37.88,0-15.57-7-27.45-19.78-33.45a5.11,5.11,0,0,0-5.13.48l-22.22,16h3.8c15.18,0,20.59,9,20.59,17.52s-5.41,17.36-20.59,17.36H199.85V282.45Z" transform="translate(-53.69 -251.44)"/><path class="cls-1" d="M196.41,364.48H179.54c-4.87,0-7.45-2.58-7.45-7.45V297.46l26-18.66a3.65,3.65,0,0,1,5.77,2.95v21.48h13.87c10.39,0,16.59-5,16.59-13.36,0-8.72-5.89-13.52-16.59-13.52H201.49l32.32-23.2a9.09,9.09,0,0,1,9.16-.86c14.24,6.7,22.08,19.86,22.08,37.07,0,26.22-17.69,41.88-47.33,41.88H203.85V357C203.85,361.9,201.28,364.48,196.41,364.48Zm-22.32-66V357c0,3.77,1.68,5.45,5.45,5.45h16.87c3.76,0,5.44-1.68,5.44-5.45V329.24h15.87c28.38,0,45.33-14.91,45.33-39.88,0-16.39-7.43-28.91-20.93-35.26a7.12,7.12,0,0,0-7.15.67l-27.26,19.58h10c11.81,0,18.59,5.66,18.59,15.52,0,9.62-6.95,15.36-18.59,15.36H201.85V281.75a1.64,1.64,0,0,0-2.6-1.33Zm22.32,63H179.54c-2.75,0-4.45-.74-4.45-4.45V299l25.76-18.5v25.73h16.87c14.44,0,19.59-8.45,19.59-16.36s-5.15-16.52-19.59-16.52h-6.91l24.75-17.77a6.06,6.06,0,0,1,6.13-.57c13.13,6.17,20.36,18.37,20.36,34.35,0,24.35-16.57,38.88-44.33,38.88H200.85V357C200.85,360.74,199.15,361.48,196.41,361.48ZM177.09,300v57c0,2.24.43,2.45,2.45,2.45h16.87c1.89,0,2.44-.1,2.44-2.45V326.24h18.87c26.51,0,42.33-13.79,42.33-36.88,0-15.16-6.82-26.72-19.21-32.54a4.08,4.08,0,0,0-4.12.39L217,271.35h.69c15.92,0,21.59,9.57,21.59,18.52s-5.67,18.36-21.59,18.36H198.85V284.4Z" transform="translate(-53.69 -251.44)"/><path class="cls-1" d="M230.24,260l-29,20.81-7.91,5.68-25.13,18a1,1,0,0,1-1.63-.83v-42c0-3.07,1-4.94,4.95-4.94h38.35A59.81,59.81,0,0,1,230.24,260Z" transform="translate(-53.69 -251.44)"/><path class="cls-1" d="M167.62,305.77a2.06,2.06,0,0,1-.93-.23,2,2,0,0,1-1.1-1.8v-42c0-2.55.62-5.94,5.95-5.94h38.35a60.82,60.82,0,0,1,20.69,3.28l1.79.65L168.8,305.38A2,2,0,0,1,167.62,305.77Zm3.92-47.95c-3.32,0-3.95,1.38-3.95,3.94v42L200.68,280l27.39-19.68a60.64,60.64,0,0,0-18.18-2.54Z" transform="translate(-53.69 -251.44)"/><path class="cls-1" d="M364.11,339.11H322.37a3.37,3.37,0,0,0-2,.63l-30.89,22.17A5.29,5.29,0,0,0,293.2,363h70.91c3.92,0,4.94-1.88,4.94-5v-14C369.05,341,368,339.11,364.11,339.11Z" transform="translate(-53.69 -251.44)"/><path class="cls-1" d="M364.11,364H293.2a6.2,6.2,0,0,1-4.36-1.33l-.92-.83,31.89-22.89a4.34,4.34,0,0,1,2.56-.82h41.74c5.32,0,5.94,3.4,5.94,5.95v14C370.05,360.58,369.43,364,364.11,364Zm-72.71-2.19a7.2,7.2,0,0,0,1.8.19h70.91c3.31,0,3.94-1.39,3.94-4v-14c0-2.56-.63-3.95-3.94-3.95H322.37a2.33,2.33,0,0,0-1.39.45Z" transform="translate(-53.69 -251.44)"/><path class="cls-1" d="M279.1,369.51a2.25,2.25,0,0,1-1.07-.26,2.33,2.33,0,0,1-1.27-2.08V261.76c0-4.33,2.11-6.44,6.45-6.44h16.87c4.34,0,6.45,2.11,6.45,6.44v81.85h9.42l-35.48,25.46A2.25,2.25,0,0,1,279.1,369.51Zm4.1-111.19c-2.39,0-3.45.5-3.45,3.44V365.89l26.87-19.28h-3.1V261.76c0-2.94-1.06-3.44-3.45-3.44Z" transform="translate(-53.69 -251.44)"/><path class="cls-1" d="M279.1,370.51a3.26,3.26,0,0,1-1.53-.37,3.31,3.31,0,0,1-1.81-3V261.76c0-4.87,2.58-7.44,7.45-7.44h16.87c4.87,0,7.45,2.57,7.45,7.44v80.85h11.53l-38,27.28A3.35,3.35,0,0,1,279.1,370.51Zm4.1-114.19c-3.77,0-5.45,1.68-5.45,5.44V367.17a1.33,1.33,0,0,0,.73,1.19,1.34,1.34,0,0,0,1.39-.1l32.95-23.65h-7.31V261.76c0-3.76-1.68-5.44-5.45-5.44Zm-4.45,111.52V261.76c0-3.7,1.7-4.44,4.45-4.44h16.87c2.75,0,4.45.74,4.45,4.44v83.85h5.21Zm4.45-108.52c-2,0-2.45.21-2.45,2.44V363.94l22.76-16.33h-1V261.76c0-2.23-.43-2.44-2.45-2.44Z" transform="translate(-53.69 -251.44)"/><path class="cls-1" d="M435.94,339.62H425.2V274.51h10.23c3.92,0,4.94-1.88,4.94-4.94V255.76c0-.26,0-.5,0-.74a1.91,1.91,0,0,0-3-1.39l-38.89,27.93v58.06H387.7c-3.92,0-4.94,1.88-4.94,4.95V358c0,3.07,1,5,4.94,5h48.24c3.92,0,4.94-1.88,4.94-5V344.57C440.88,341.5,439.86,339.62,435.94,339.62Z" transform="translate(-53.69 -251.44)"/><path class="cls-1" d="M435.94,364H387.7c-5.32,0-5.94-3.4-5.94-6V344.57c0-2.55.62-5.95,5.94-5.95h9.74V281.05l39.31-28.23a2.92,2.92,0,0,1,3-.26,2.83,2.83,0,0,1,1.64,2.4c0,.25,0,.52,0,.8v13.81c0,2.55-.62,5.94-5.94,5.94H426.2v63.11h9.74c5.32,0,5.94,3.4,5.94,5.95V358C441.88,360.58,441.26,364,435.94,364ZM387.7,340.62c-3.31,0-3.94,1.39-3.94,3.95V358c0,2.56.63,4,3.94,4h48.24c3.31,0,3.94-1.39,3.94-4V344.57c0-2.56-.63-3.95-3.94-3.95H424.2V273.51h11.23c3.31,0,3.94-1.38,3.94-3.94V255.76c0-.23,0-.46,0-.67a.86.86,0,0,0-.5-.73.93.93,0,0,0-.94.09l-38.47,27.62v58.55Z" transform="translate(-53.69 -251.44)"/><path class="cls-1" d="M388,292.57a2,2,0,0,1-.92-.22,2,2,0,0,1-1.1-1.79V286H377c-4.33,0-6.44-2.11-6.44-6.44V265.76c0-4.33,2.11-6.44,6.44-6.44h47.39c2.36,0,4,.61,5.09,1.87l1.06,1.24-41.45,29.76A2,2,0,0,1,388,292.57ZM377,262.32c-2.94,0-3.44,1.06-3.44,3.44v13.81c0,2.38.5,3.44,3.44,3.44h11.9v5.63l36.56-26.26a8.72,8.72,0,0,0-1.07-.06Z" transform="translate(-53.69 -251.44)"/><path class="cls-1" d="M388,293.57a3,3,0,0,1-3-3V287H377c-4.87,0-7.44-2.57-7.44-7.44V265.76c0-4.87,2.57-7.44,7.44-7.44h47.39c2.67,0,4.58.73,5.85,2.22l1.76,2.07L389.71,293A2.91,2.91,0,0,1,388,293.57ZM377,260.32c-3.76,0-5.44,1.68-5.44,5.44v13.81c0,3.76,1.68,5.44,5.44,5.44h9.9v5.55a1,1,0,0,0,.55.9,1,1,0,0,0,1.06-.08l40.56-29.13-.35-.41c-.87-1-2.28-1.52-4.33-1.52Zm10.9,30.27V284H377c-3.7,0-4.44-1.7-4.44-4.44V265.76c0-2.74.74-4.44,4.44-4.44h47.39a9,9,0,0,1,1.2.07l2.5.33ZM377,263.32c-2.23,0-2.44.43-2.44,2.44v13.81c0,2,.21,2.44,2.44,2.44h12.9v4.68l32.54-23.37Z" transform="translate(-53.69 -251.44)"/><path class="cls-1" d="M535.62,259.82H456.53c-3.92,0-4.94,1.87-4.94,4.94v14.15c0,3.07,1,4.94,4.94,4.94h26.25v76.64a1.56,1.56,0,0,0,2.47,1.27l24.29-17.43V283.85h26.08c3.92,0,5-1.87,5-4.94V264.76C540.57,261.69,539.54,259.82,535.62,259.82Z" transform="translate(-53.69 -251.44)"/><path class="cls-1" d="M484.34,363.06a2.58,2.58,0,0,1-2.56-2.56V284.85H456.53c-5.32,0-5.94-3.39-5.94-5.94V264.76c0-2.55.62-5.94,5.94-5.94h79.09c5.33,0,6,3.39,6,5.94v14.15c0,2.55-.62,5.94-6,5.94H510.54v60l-24.7,17.74A2.57,2.57,0,0,1,484.34,363.06ZM456.53,260.82c-3.31,0-3.94,1.38-3.94,3.94v14.15c0,2.56.63,3.94,3.94,3.94h27.25V360.5a.55.55,0,0,0,.31.5.56.56,0,0,0,.58-.05l23.87-17.13v-61h27.08c3.32,0,4-1.38,4-3.94V264.76c0-2.56-.63-3.94-4-3.94Z" transform="translate(-53.69 -251.44)"/><line class="cls-1" x1="235.82" y1="110.47" x2="234.31" y2="111.56"/><rect class="cls-1" x="287.82" y="361.46" width="1.86" height="2" transform="translate(-211.24 -13.73) rotate(-35.84)"/><path class="cls-1" d="M513.6,364.48H496.73c-1.64,0-5.45-.63-5.45-6.45v-4.26l28-20.11,1.7.84,0,1V358C521,363.71,517.28,364.48,513.6,364.48Zm-19.32-9.17V358c0,3.45,1.59,3.45,2.45,3.45H513.6c3.8,0,4.44-.86,4.44-3.45V338.25Z" transform="translate(-53.69 -251.44)"/><path class="cls-1" d="M513.6,365.48H496.73c-1.51,0-6.45-.54-6.45-7.45v-4.77l28.93-20.76,2.76,1.36.07,1.57V358C522,365.48,515.91,365.48,513.6,365.48Zm-21.32-11.2V358c0,4.51,2.42,5.45,4.45,5.45H513.6c4,0,6.44-.91,6.44-5.45v-22.9l-.63-.31Zm21.32,8.2H496.73c-.85,0-3.45,0-3.45-4.45V354.8L519,336.3V358C519,361.4,517.72,362.48,513.6,362.48Zm-18.32-6.66V358c0,2.45.74,2.45,1.45,2.45H513.6c3.44,0,3.44-.62,3.44-2.45V340.2Z" transform="translate(-53.69 -251.44)"/></svg>